HIERARCHY
ROOT Hips
{
	OFFSET -0.001795 -0.223333 0.028219
	CHANNELS 6 Xposition Yposition Zposition Zrotation Yrotation Xrotation 
	JOINT LeftUpLeg
	{
		OFFSET 0.069520 -0.091406 -0.006815
		CHANNELS 3 Zrotation Yrotation Xrotation
		JOINT LeftLeg
		{
			OFFSET 0.034277 -0.375199 -0.004496
			CHANNELS 3 Zrotation Yrotation Xrotation
			JOINT LeftFoot
			{
				OFFSET -0.013596 -0.397961 -0.043693
				CHANNELS 3 Zrotation Yrotation Xrotation
				JOINT LeftToe
				{
					OFFSET 0.026358 -0.055791 0.119288
					CHANNELS 3 Zrotation Yrotation Xrotation
					End Site
					{
						OFFSET 0.000000 0.000000 0.000000
					}
				}
			}
		}
	}
	JOINT RightUpLeg
	{
		OFFSET -0.067670 -0.090522 -0.004320
		CHANNELS 3 Zrotation Yrotation Xrotation
		JOINT RightLeg
		{
			OFFSET -0.038290 -0.382569 -0.008850
			CHANNELS 3 Zrotation Yrotation Xrotation
			JOINT RightFoot
			{
				OFFSET 0.015774 -0.398415 -0.042312
				CHANNELS 3 Zrotation Yrotation Xrotation
				JOINT RightToe
				{
					OFFSET -0.025372 -0.048144 0.123348
					CHANNELS 3 Zrotation Yrotation Xrotation
					End Site
					{
						OFFSET 0.000000 0.000000 0.000000
					}
				}
			}
		}
	}
	JOINT Spine
	{
		OFFSET -0.002533 0.108963 -0.026696
		CHANNELS 3 Zrotation Yrotation Xrotation
		JOINT Spine1
		{
			OFFSET 0.005487 0.135180 0.001092
			CHANNELS 3 Zrotation Yrotation Xrotation
			JOINT Spine2
			{
				OFFSET 0.001457 0.052922 0.025425
				CHANNELS 3 Zrotation Yrotation Xrotation
				JOINT Neck
				{
					OFFSET -0.002778 0.213870 -0.042857
					CHANNELS 3 Zrotation Yrotation Xrotation
					JOINT Head
					{
						OFFSET 0.005152 0.064970 0.051349
						CHANNELS 3 Zrotation Yrotation Xrotation
						End Site
						{
							OFFSET 0.000000 0.000000 0.000000
						}
					}
				}
				JOINT LeftShoulder
				{
					OFFSET 0.078845 0.121749 -0.034090
					CHANNELS 3 Zrotation Yrotation Xrotation
					JOINT LeftArm
					{
						OFFSET 0.090977 0.030469 -0.008868
						CHANNELS 3 Zrotation Yrotation Xrotation
						JOINT LeftForeArm
						{
							OFFSET 0.259612 -0.012772 -0.027456
							CHANNELS 3 Zrotation Yrotation Xrotation
							JOINT LeftHand
							{
								OFFSET 0.249234 0.008986 -0.001171
								CHANNELS 3 Zrotation Yrotation Xrotation
								End Site
								{
									OFFSET 0.000000 0.000000 0.000000
								}
							}
						}
					}
				}
				JOINT RightShoulder
				{
					OFFSET -0.081759 0.118833 -0.038615
					CHANNELS 3 Zrotation Yrotation Xrotation
					JOINT RightArm
					{
						OFFSET -0.096012 0.032551 -0.009143
						CHANNELS 3 Zrotation Yrotation Xrotation
						JOINT RightForeArm
						{
							OFFSET -0.253742 -0.013329 -0.021401
							CHANNELS 3 Zrotation Yrotation Xrotation
							JOINT RightHand
							{
								OFFSET -0.255298 0.007772 -0.005559
								CHANNELS 3 Zrotation Yrotation Xrotation
								End Site
								{
									OFFSET 0.000000 0.000000 0.000000
								}
							}
						}
					}
				}
			}
		}
	}
}
MOTION
Frames: 5
Frame Time: 0.050000
-0.059140 0.949436 0.001214 4.887864 -23.519962 9.368656 1.359332 -0.785452 -18.321483 -4.853417 0.825714 1.256858 7.007714 12.955704 25.877416 0.000000 0.000000 0.000000 -10.758293 1.256794 -9.343186 6.740943 -0.230272 9.061775 -12.001091 -26.629978 9.107563 0.000000 0.000000 0.000000 2.305178 -0.252338 24.671382 10.740520 -2.614260 -19.128155 5.747810 12.608006 26.949254 10.461599 -5.590584 -18.741522 0.000000 0.000000 0.000000 -30.006049 -0.320981 -1.685846 -39.535841 -13.147291 -2.660256 -83.867046 -63.779356 64.076935 0.000000 0.000000 0.000000 0.670339 17.001046 5.964903 5.090237 27.900454 -1.549155 -53.863309 34.021092 -15.820079 0.000000 0.000000 0.000000 
-0.059837 0.949270 0.001578 4.910568 -22.541660 9.354390 1.241227 -0.840938 -18.483619 -4.939406 0.835868 1.501696 6.974089 13.082336 25.477098 0.000000 0.000000 0.000000 -10.643748 1.220861 -9.247126 6.815172 -0.259457 9.250871 -12.474909 -27.416422 9.621701 0.000000 0.000000 0.000000 2.572118 -0.357269 25.092122 10.378812 -2.498631 -19.398121 5.586878 12.472156 26.702792 10.502295 -5.565969 -18.702618 0.000000 0.000000 0.000000 -30.286860 -0.753954 -1.587657 -39.515446 -13.546576 -2.475754 -84.588182 -64.381548 65.189989 0.000000 0.000000 0.000000 0.069317 17.039997 5.925684 4.919080 27.263705 -1.526198 -54.281014 33.622797 -15.686340 0.000000 0.000000 0.000000 
-0.060857 0.949239 0.001924 4.889290 -21.619293 9.319143 1.069893 -0.902637 -18.351801 -4.946557 0.818632 1.308306 7.204740 13.542661 25.163271 0.000000 0.000000 0.000000 -10.574569 1.182733 -8.956239 6.969956 -0.308167 8.924571 -12.961771 -28.190152 10.566650 0.000000 0.000000 0.000000 2.782054 -0.460608 25.239388 9.898136 -2.374099 -19.522233 5.393370 12.404106 26.645437 10.535274 -5.578326 -18.500751 0.000000 0.000000 0.000000 -30.320448 -1.317315 -1.374403 -39.804238 -13.809407 -2.356500 -85.681872 -65.113266 66.819348 0.000000 0.000000 0.000000 0.041698 17.339601 6.044103 4.678812 26.308508 -1.504532 -54.422477 33.232000 -15.473426 0.000000 0.000000 0.000000 
-0.062014 0.949073 0.002196 4.851110 -20.658027 9.341896 0.962137 -0.952681 -18.175299 -4.801151 0.775786 1.160851 6.840173 13.223232 24.264331 0.000000 0.000000 0.000000 -10.378986 1.140158 -8.703521 6.967045 -0.337456 8.689741 -13.412101 -28.873605 11.313669 0.000000 0.000000 0.000000 2.871986 -0.529523 25.599436 9.684665 -2.267414 -19.937587 5.486473 12.568073 26.623754 10.330786 -5.344908 -18.515514 0.000000 0.000000 0.000000 -30.292938 -1.905735 -1.262209 -39.991766 -13.821401 -2.270657 -86.648437 -65.291027 67.659322 0.000000 0.000000 0.000000 -0.492967 17.656536 6.103184 5.005269 25.285558 -1.406724 -53.168783 34.303517 -15.459484 0.000000 0.000000 0.000000 
-0.063184 0.949072 0.002310 4.901222 -20.018406 9.235426 0.829215 -0.991605 -17.886726 -4.806078 0.762887 0.946540 6.800593 13.275824 23.719438 0.000000 0.000000 0.000000 -10.322968 1.120157 -8.787040 6.959884 -0.350870 8.896576 -13.922973 -29.613043 12.391596 0.000000 0.000000 0.000000 2.912005 -0.571956 25.810859 9.485628 -2.243573 -19.753851 5.235499 12.604320 26.372257 10.305994 -5.330281 -18.225234 0.000000 0.000000 0.000000 -30.385587 -2.211280 -1.241666 -39.929826 -13.759786 -2.223152 -86.210603 -65.240107 67.031749 0.000000 0.000000 0.000000 -0.426245 18.190882 6.310041 5.030383 24.354749 -1.357578 -51.969270 36.096779 -15.879968 0.000000 0.000000 0.000000 
